# xmcd CD database file
#
# Track frame offsets:
#	150
#	50603
#	92861
#	135525
#	183841
#	220352
#
# Disc length: 3415 seconds
#
# Revision: 0
# Processed by: cddbd v1.5.2PL0 Copyright (c) Steve Scherf et al.
# Submitted via: CDex 1.70beta2
#
DISCID=530d5506
DTITLE=Miles Davis - Modern Jazz Cool Jazz 1954-55 CD 003
DYEAR=2008
DGENRE=Jazz
TTITLE0=Bag's Groove
TTITLE1=Bag's Groove
TTITLE2=Bemsha Swing
TTITLE3=Swing Spring
TTITLE4=The Man I Love
TTITLE5=The Man I Love
EXTD=YEAR: 2008
EXTT0=
EXTT1=
EXTT2=
EXTT3=
EXTT4=
EXTT5=
PLAYORDER=
